<?xml version="1.0" encoding="UTF-8"?>
<svg id="Layer_1" data-name="Layer 1" xmlns="http://www.w3.org/2000/svg" viewBox="0 0 203.17 189.06">
  <defs>
    <style>
      .cls-1 {
        fill: #fff;
      }

      .cls-2 {
        fill: #e2e2e2;
      }

      .cls-3 {
        fill: #dadada;
      }
    </style>
  </defs>
  <path class="cls-2" d="M203.05,100.28c-.38-5.62-1.94-11.17-4.51-16.01-5.77-11.05-15.06-17.42-21.8-20.81-9.22-4.67-18.76-6.56-25.14-7.58-3.93-.62-7.91-1.01-11.82-1.17,1.63-2.95,2.89-5.85,3.82-8.75,3.49-10.56,2.56-21.7-2.49-30.47-.66-1.17-1.46-2.38-2.44-3.68l-.11-.14c-.99-1.25-2.04-2.39-3.11-3.4-2.22-2.08-4.73-3.83-7.49-5.2-2.86-1.41-5.89-2.34-8.95-2.78-1.27-.19-2.58-.28-3.9-.28-2.13,0-4.25,.25-6.27,.73-3.13,.73-6.23,2.06-8.98,3.85-2.35,1.54-4.53,3.42-6.49,5.58-3.13,3.46-5.7,7.7-7.63,12.52-1.37,3.33-2.31,6.5-3.14,9.3l-.41,1.38c-.25,.84-.51,1.67-.78,2.49l-.19-2.09c-.09-.85-.23-1.98-.45-3.26-.4-2.29-1.08-5.34-2.83-8.65-.98-1.84-2.19-3.51-3.65-5.02-1.47-1.49-3.13-2.76-4.92-3.78l-.09-.05c-1.6-.88-3.33-1.58-5.14-2.08l-.13-.04c-1.51-.4-3.08-.67-4.72-.81-.87-.07-1.76-.11-2.64-.11-1.68,0-3.38,.12-5.13,.37-1.28,.17-2.38,.4-3.31,.6l-.19,.04c-.9,.18-1.91,.39-3,.71-4.07,1.08-7.94,2.52-11.51,4.26-7.58,3.69-14.18,8.58-19.63,14.52-2.79,3.04-5.29,6.33-7.39,9.75-2.71,4.33-4.47,8.31-5.56,12.56C.22,55.58-.08,58.41,.02,61.19c.12,3.13,.77,6.16,1.97,9.1,1.37,3.26,3.44,6.19,6.04,8.49,2.59,2.27,5.73,3.95,9.02,4.86,2.29,.65,4.72,.98,7.23,.98,.32,0,.64,0,.97-.02-.21,2.67-.34,5.34-.41,8.02-.15,9.03,.53,18.24,2.05,27.42,1.52,8.94,3.92,17.91,7.16,26.75,.82,2.17,1.65,4.26,2.53,6.37l.05,.11c1.17,2.7,2.46,5.19,3.81,7.35,1.53,2.48,3.18,4.65,4.62,6.49l3.93,4.92c5.08,6.38,10.58,10.85,16.84,13.68,4.95,2.22,10.26,3.34,15.76,3.34,2.6,0,5.22-.26,7.82-.78,4.12-.85,7.94-2.29,11.28-4.23,1.59-.9,3.14-1.95,4.61-3.11,2.65,2.47,5.92,4.4,9.78,5.76,2.88,.98,5.85,1.56,9.08,1.79,1,.07,1.99,.1,3.03,.1,1.42,0,2.92-.06,4.71-.2l.19-.02c4.89-.49,9.78-1.66,14.57-3.5,4.33-1.7,8.56-3.92,12.6-6.61,3.63-2.44,7.2-5.39,10.64-8.8,2.93-2.94,5.81-6.24,8.55-9.83,5.15-6.79,9.27-13.77,12.97-20.32,3.37-6,7.98-14.22,10.3-23.86,1.25-5.27,1.69-10.4,1.34-15.17Z"/>
  <g>
    <path class="cls-3" d="M60.1,163.02c2.8,3.36,6.07,6.4,9.95,8.42,8.13,4.25,18.67,3.39,26.01-2.12,7.34-5.51,11.1-15.39,9.3-24.38-1.71-8.49-7.73-15.41-13.92-21.47-6.19-6.06-12.19-12.17-16.07-19.92,16.33-9.06,36.84-10.19,54.07-2.98,3.53,1.48,7.23,3.63,8.37,7.28,.98,3.12-.19,6.51-1.69,9.42-3.67,7.13-9.26,13.05-14.23,19.35-4.97,6.29-9.5,13.37-10.43,21.34-.47,4.05,.13,8.45,2.78,11.54,2.88,3.37,7.6,4.55,12.04,4.69,11.82,.39,23.23-5.31,31.94-13.32,8.71-8.01,15.07-18.2,20.95-28.47,3.23-5.64,6.38-11.4,8.31-17.6,1.94-6.21,2.62-12.96,.87-19.22-1.94-6.98-6.8-12.92-12.73-17.08-5.93-4.16-12.88-6.66-19.94-8.28-16.58-3.81-33.99-3.83-50.1,1.65,8.19-4.91,15.17-11.83,20.15-19.98,2.93-4.79,5.2-10.09,5.78-15.68,.58-5.59-.67-11.49-4.14-15.9-3.47-4.41-9.33-7.07-14.85-6.01-5.49,1.06-9.81,5.47-12.48,10.39-2.66,4.92-4,10.43-5.89,15.69-5.42,15.1-14.74,27.34-27.91,36.51,2.65-13.67,3.26-27.73,1.81-41.57-.35-3.32-.93-6.87-3.25-9.27-3.12-3.22-8.24-3.24-12.65-2.47-14.79,2.59-28.25,11.96-35.82,24.93-1.92,3.29-3.5,6.89-3.8,10.69-.3,3.8,.84,7.86,3.65,10.43,3.04,2.79,7.58,3.44,11.64,2.7s7.78-2.71,11.42-4.66c-4.71,26.96-1.46,54.46,9.74,79.42,3.17,7.07,6.16,9.97,11.12,15.92Z"/>
    <path d="M64.96,158.98c2.88,3.26,6.12,5.84,9.38,7.05,3.31,1.23,7.11,1.45,10.66,.72,1.78-.34,3.49-.96,5.04-1.77,1.55-.82,2.94-1.84,4.21-3.12,2.51-2.54,4.34-6.04,5-9.71,.35-1.83,.43-3.7,.21-5.51-.22-1.83-.74-3.73-1.55-5.59-1.57-3.76-4.21-7.44-7.29-10.99-6.28-7.02-14.19-14.88-18.41-24.91h0c-.74-1.67-.16-3.58,1.28-4.57l.16-.11c6.49-4.48,14.03-7.53,21.88-9.08,7.86-1.54,16.06-1.58,24.04-.09,3.98,.77,7.93,1.86,11.72,3.4,1.93,.75,4.02,1.72,6.13,3.17,1.05,.73,2.12,1.61,3.13,2.71,1,1.09,1.94,2.42,2.62,3.95,.68,1.51,1.1,3.22,1.19,4.8,.1,1.6-.05,3.09-.33,4.44-.57,2.7-1.57,4.88-2.57,6.79-1.96,3.76-4.31,7.1-6.69,10.18-2.38,3.08-4.8,5.93-7.03,8.72-2.22,2.77-4.23,5.51-5.88,8.31-1.65,2.79-2.91,5.63-3.56,8.43-.32,1.4-.55,2.82-.57,4.06-.02,1.27,.14,2.44,.44,3.37,.31,.94,.7,1.54,1.23,2.05,.52,.53,1.35,1,2.42,1.39,1.09,.37,2.39,.63,3.8,.73,1.4,.1,2.99,.05,4.49-.05,3.04-.3,6.09-1.03,9.06-2.16,2.96-1.15,5.84-2.67,8.57-4.47,2.72-1.84,5.27-3.89,7.69-6.23,2.41-2.35,4.67-4.91,6.8-7.64,4.26-5.47,8.02-11.55,11.68-17.85,3.67-6.29,6.95-12.4,8.55-18.59,.79-3.09,1.19-6.22,1.01-9.2-.16-3-.87-5.75-2.19-8.41-1.32-2.65-3.21-5.12-5.46-7.27-2.25-2.16-4.88-3.98-7.78-5.52-5.79-3.09-12.52-4.84-19.47-6.18-3.46-.62-6.94-1.1-10.44-1.41-3.5-.28-7-.44-10.51-.37-7.01,.14-13.99,1.08-20.87,2.78h-.06c-1.93,.46-3.86-.74-4.31-2.67-.33-1.41,.23-2.83,1.31-3.66l.04-.03c4.98-3.82,9.36-8.22,13-13.1,1.79-2.46,3.41-5.03,4.82-7.67,1.38-2.64,2.48-5.33,3.18-7.98,.71-2.67,.98-5.26,.78-7.76-.22-2.5-.91-4.87-2.04-6.8-.27-.49-.6-.93-.92-1.37-.32-.41-.66-.8-1.04-1.16-.76-.73-1.64-1.35-2.57-1.84-1.89-.94-3.88-1.26-5.58-.85-1.76,.37-3.64,1.54-5.34,3.28-1.71,1.79-3.06,3.97-4.24,6.65-1.17,2.66-2.18,5.67-3.32,8.88-1.13,3.24-2.51,6.59-4.05,9.76-1.55,3.19-3.35,6.26-5.34,9.2-1.98,2.94-4.17,5.74-6.56,8.35-4.75,5.24-10.28,9.69-16.2,13.3l-.08,.05c-1.68,1.06-3.9,.56-4.96-1.12-.44-.69-.61-1.47-.54-2.23l.02-.22c.55-6.41,.96-12.77,1.03-19.13,.05-6.35-.16-12.68-.74-18.98l-.24-2.35c-.08-.76-.17-1.47-.27-2.13-.21-1.31-.53-2.4-.91-3.1-.38-.72-.73-1.03-1.31-1.4-.31-.16-.67-.32-1.1-.45-.45-.11-.95-.21-1.51-.26-1.12-.1-2.41-.05-3.75,.14-.66,.08-1.37,.23-2.1,.38-.72,.14-1.44,.28-2.15,.48-2.86,.7-5.67,1.66-8.36,2.93-5.38,2.51-10.33,6-14.5,10.26-2.07,2.14-3.95,4.46-5.58,6.95-1.66,2.5-3.03,5.06-3.75,7.52-.37,1.23-.55,2.46-.56,3.59,0,1.16,.19,2.3,.55,3.31,.74,2.04,1.97,3.34,4.12,4.1,1.05,.38,2.27,.55,3.52,.55,.63,0,1.26-.05,1.89-.14,.65-.1,1.32-.24,1.99-.41,2.68-.72,5.48-2,8.42-3.45l.11-.05c1.78-.87,3.93-.14,4.81,1.65,.33,.67,.43,1.39,.33,2.08-2.25,16.22-1.65,32.72,1.85,48.51,1.77,7.89,4.3,15.58,7.46,22.98,.8,1.82,1.67,3.7,2.5,5.44,.84,1.68,1.73,3.24,2.75,4.69,1.01,1.46,2.18,2.87,3.5,4.37l4.18,4.7Zm-9.71,8.08l-3.94-4.93c-1.36-1.73-2.79-3.62-4.06-5.69-1.28-2.06-2.37-4.22-3.29-6.34-.87-2.09-1.65-4.08-2.43-6.14-3.01-8.21-5.29-16.67-6.75-25.26-1.42-8.59-2.09-17.28-1.94-25.94,.22-8.66,1.21-17.27,2.93-25.7l5.14,3.72-.11,.06c-2.86,1.63-5.91,3.44-9.53,4.61-.91,.29-1.84,.54-2.8,.74-.99,.2-1.99,.33-3,.39-2.03,.11-4.12-.05-6.21-.64-2.09-.57-4.17-1.64-5.95-3.19-1.77-1.57-3.08-3.53-3.93-5.57-.84-2.05-1.27-4.19-1.35-6.31-.08-2.16,.19-4.22,.67-6.16,.99-3.89,2.69-7.24,4.58-10.26,1.89-3.06,4.08-5.94,6.51-8.58,4.86-5.3,10.77-9.58,17.24-12.74,3.24-1.58,6.65-2.82,10.15-3.75,.87-.26,1.76-.43,2.65-.62,.88-.19,1.77-.37,2.75-.5,1.91-.27,3.93-.4,6.08-.22,1.08,.1,2.2,.28,3.34,.58,1.15,.32,2.32,.77,3.46,1.4,1.14,.64,2.21,1.47,3.16,2.43,.94,.97,1.7,2.07,2.28,3.16,1.17,2.21,1.68,4.35,2.01,6.27,.16,.96,.28,1.88,.37,2.76l.23,2.55c.56,6.79,.58,13.63-.04,20.4-.61,6.77-1.79,13.48-3.73,19.97l-5.48-3.57,.07-.06c4.93-4.02,9.39-8.49,13.17-13.44,3.73-4.98,6.91-10.32,9.25-16.06,1.21-2.87,2.23-5.72,3.14-8.8,.93-3.1,1.85-6.45,3.27-9.91,1.37-3.43,3.37-7.1,6.17-10.2,1.41-1.56,3.04-3.02,4.93-4.26,1.89-1.23,4.08-2.2,6.42-2.75,2.36-.56,4.85-.66,7.17-.32,2.34,.33,4.56,1.04,6.59,2.04,2.03,1.01,3.9,2.31,5.55,3.86,.83,.77,1.6,1.63,2.31,2.52,.67,.89,1.31,1.81,1.84,2.77,4.42,7.68,4.29,16.7,1.87,24.05-1.19,3.72-2.92,7.09-4.87,10.18-.97,1.55-2.02,3.02-3.1,4.48-1.12,1.43-2.29,2.8-3.51,4.13-4.89,5.29-10.72,9.65-17.12,12.68l-2.95-6.37,.06-.02c7.15-3.02,14.84-4.79,22.59-5.54,3.88-.35,7.78-.46,11.67-.3,3.89,.13,7.76,.51,11.6,1.11,7.58,1.21,15.39,3.07,22.77,6.81,7.35,3.69,14.2,9.5,18.33,17.38,2.08,3.92,3.32,8.46,3.61,12.84,.33,4.41-.18,8.71-1.14,12.79-1.98,8.22-5.84,15.27-9.5,21.78-3.68,6.52-7.61,13.13-12.37,19.4-2.39,3.13-4.98,6.16-7.83,9.02-2.86,2.84-6.03,5.52-9.44,7.81-3.43,2.29-7.12,4.26-11.05,5.8-3.94,1.51-8.13,2.56-12.45,2.99-2.19,.17-4.3,.25-6.59,.09-2.28-.16-4.64-.56-7.06-1.38-2.4-.84-4.92-2.14-7.06-4.19-2.17-2.03-3.73-4.71-4.57-7.28-1.68-5.2-1.22-10.15-.2-14.48,1.07-4.41,2.95-8.37,5.08-11.92,2.13-3.56,4.56-6.76,6.98-9.74,2.41-2.97,4.8-5.74,6.96-8.5,2.16-2.75,4.08-5.48,5.57-8.28,.74-1.35,1.24-2.59,1.44-3.52,.1-.46,.12-.82,.11-1.07,0-.26-.06-.38-.12-.55-.12-.31-.56-.9-1.49-1.57-.93-.66-2.2-1.31-3.7-1.91-3.04-1.3-6.24-2.26-9.49-3.03-13.04-2.99-27.16-1.76-40.06,3.57l1.44-4.67h0c2.4,3.93,5.36,7.5,8.74,10.84,1.68,1.68,3.47,3.29,5.27,4.94l2.77,2.48c.96,.87,1.92,1.75,2.87,2.67,3.78,3.67,7.47,7.87,10.24,13.12,1.37,2.62,2.43,5.51,3.04,8.6,.61,3.11,.7,6.29,.33,9.39-.76,6.21-3.38,12.13-7.58,16.96-2.1,2.41-4.66,4.53-7.47,6.13-2.8,1.63-5.84,2.71-8.95,3.36-6.22,1.25-12.8,.61-18.7-2.03-5.97-2.7-10.37-6.99-13.85-11.36Z"/>
    <path class="cls-1" d="M153.09,85.71c1.62,.56,3.22,.84,4.75,1.65s3.02,1.58,4.3,2.66c2.74,2.32,4.9,5.25,6.12,8.66,3.02,8.45,.87,17.07-1.72,25.31-1.53,4.86-3.51,9.67-5.69,14.27-.46,.98,.81,1.7,1.44,.84,3.01-4.11,6.07-8.1,8.52-12.59s3.99-9.43,4.58-14.68c1.05-9.18-1.43-19.19-8.58-25.45-3.67-3.21-8.71-5.86-13.72-5.08-.98,.15-1.68,1.29-1.68,2.21,0,1.05,.72,1.87,1.68,2.21h0Z"/>
    <path class="cls-1" d="M112.29,26.39c.37,1.35,1.46,1.73,2.45,2.51,.74,.59,1.02,1.73,1.13,2.67,.32,2.72-.08,5.53-.83,8.14-1.63,5.68-4.5,10.73-7.05,16.02-.51,1.07,.8,2.25,1.71,1.32,5.16-5.25,9.96-11.39,11.43-18.76,.73-3.63,.99-7.92-.84-11.29-.81-1.49-2.22-2.94-3.88-3.44s-4.77,.46-4.12,2.82h0Z"/>
    <path class="cls-1" d="M39.76,39.48c1.19,1.62,3.48,1.48,5.22,.96s3.36-1.59,5.13-2.11c.79-.24,1.3-.33,2.02-.33,.67,0,1.28,.08,1.75,.39,.88,.6,.96,2.13,.95,3.37-.02,2.15-.27,4.3-.21,6.45,.07,2.46,.57,4.97,.99,7.39,.8,4.58,1.4,9.25,2.74,13.71,.18,.6,1.1,.5,1.11-.15,.03-4.14-.2-8.27,.07-12.4,.13-2.04,.41-4.08,.66-6.11s.28-4.23,.38-6.35c.16-3.57,.34-7.71-2.72-10.22-2.79-2.28-6.65-2.33-9.92-1.09-1.88,.72-3.67,1.67-5.33,2.8-.67,.46-3.72,2.48-2.82,3.7h0Z"/>
    <path class="cls-1" d="M78.98,162.28c.68,1.37,2.58,1.01,3.72,.57,1.52-.58,2.87-1.58,4.06-2.68,2.73-2.54,4.42-5.58,4.74-9.33,.73-8.42-4.95-15.72-9.9-21.88-1.34-1.66-2.64-3.33-3.89-5.06-1.32-1.83-2.94-4.02-4.88-5.23-.76-.48-2.14-.07-2.27,.92-.54,4,2.18,7.5,4.48,10.46s4.61,5.59,6.6,8.61,3.62,6.16,4.06,9.67c.19,1.5,.04,3.03-.16,4.11-.24,1.31-.62,2.76-1.2,3.96-.68,1.38-1.68,2.41-2.99,3.22-.72,.44-2.96,1.44-2.36,2.64h0Z"/>
    <path d="M108.98,84.53c.51-1.28,.23-3.01,.04-4.34s-.44-2.55-.9-3.76-1.22-2.23-1.64-3.41c-.34-.95-.11-1.66,.17-2.61,.18-.63-.32-1.2-.93-1.23-1.51-.06-2.36,1.46-2.48,2.8-.13,1.49,.6,2.83,1.3,4.09,.66,1.2,1.2,2.45,1.4,3.81,.1,.63,.13,1.33,.06,1.96-.08,.74-.33,1.49-.3,2.24,.02,.83,.62,1.55,1.45,1.65,.89,.11,1.52-.4,1.84-1.2h0Z"/>
    <path d="M108.12,81.5c.41-.42,.54-1.12,.64-1.68,.12-.64,.24-1.3,.41-1.93,.32-1.18,.94-2.04,2.06-2.57s2.38-.68,3.56-.92c1.6-.32,3.16-.83,4.74-1.22,.6-.15,3.84-.76,2.56-1.97-.47-.45-1.45-.25-2.03-.2-.85,.08-1.71,.15-2.56,.2-2.76,.17-6,.29-8.37,1.92-1.31,.9-2.27,2.22-2.56,3.8-.16,.87-.17,1.68-.05,2.55,.09,.64,.26,1.56,.77,2,.24,.21,.6,.24,.84,0h0Z"/>
    <path d="M114.08,78.91c.16-.51,.13-1.2,.1-1.74-.03-.49-.08-.99-.09-1.48l-.04-1.42c-.02-.6,.09-1.42-.27-1.92-.55-.77-1.54-.77-2.09,0-.35,.49-.25,1.27-.27,1.86l-.04,1.48c-.01,.48-.06,.95-.09,1.42-.03,.56-.07,1.27,.09,1.8,.18,.57,.72,1.05,1.35,1.03s1.16-.42,1.35-1.03h0Z"/>
    <path d="M113.63,78.94c.2-1.43,.83-2.76,1.88-3.77,1.18-1.13,2.8-1.61,4.35-1.96,1.71-.39,3.42-.71,5.17-.89,.89-.09,1.77-.16,2.66-.19s1.77-.01,2.6-.4c.53-.25,.52-1.14,0-1.39-.92-.45-1.92-.37-2.92-.32-1.1,.05-2.19,.15-3.29,.29-2.01,.26-4.07,.57-5.98,1.26-2.81,1.02-6.75,3.98-4.98,7.43,.1,.19,.46,.17,.5-.06h0Z"/>
    <path d="M67.51,90.24c.6-.95,.52-2.41,.51-3.5s.19-2.15,.32-3.22c.26-2.19,.53-4.37,.69-6.56,.08-1.04-1.62-1.28-1.83-.25-.44,2.16-.76,4.33-1.1,6.51-.17,1.06-.26,2.15-.56,3.18s-.76,2.44-.45,3.52,1.82,1.28,2.42,.32h0Z"/>
    <path d="M71.36,85.34c.24-.97,.11-1.94,.22-2.92,.1-.91,.23-1.81,.38-2.71s.35-1.77,.57-2.64c.12-.47,.26-.93,.41-1.4,.13-.4,.36-.73,.35-1.15-.01-.64-.83-.83-1.17-.32-.26,.39-.24,.91-.34,1.37s-.21,.95-.33,1.42c-.21,.88-.42,1.75-.64,2.62s-.43,1.75-.62,2.62c-.21,.97-.61,1.85-.62,2.86s1.54,1.25,1.78,.24h0Z"/>
  </g>
</svg>